PathFileType	4	(X/Y/Z)	C:/Users/opensim2020/Desktop/walking_exp_matlab/subject01_walking14_straight_04.trc																																																																																																																												
DataRate	CameraRate	NumFrames	NumMarkers	Units	OrigDataRate	OrigDataStartFrame	OrigNumFrames																																																																																																																								
100	100	7	42	mm	100	2140	89																																																																																																																								
Frame#	Time	LFHD			RFHD			LBHD			RBHD			C7			T10			CLAV			STRN			RBAK			LSHO			LUPA			LELB			LFRM			LWRA			LWRB			LFIN			RSHO			RUPA			RELB			RFRM			RWRA			RWRB			RFIN			LASI			RASI			LPSI			RPSI			LTHI			LKNE			LTIB			LANK			LHEE			LTOE			RTHI			RKNE			RTIB			RANK			RHEE			RTOE			*39			*40			*41		
		X1	Y1	Z1	X2	Y2	Z2	X3	Y3	Z3	X4	Y4	Z4	X5	Y5	Z5	X6	Y6	Z6	X7	Y7	Z7	X8	Y8	Z8	X9	Y9	Z9	X10	Y10	Z10	X11	Y11	Z11	X12	Y12	Z12	X13	Y13	Z13	X14	Y14	Z14	X15	Y15	Z15	X16	Y16	Z16	X17	Y17	Z17	X18	Y18	Z18	X19	Y19	Z19	X20	Y20	Z20	X21	Y21	Z21	X22	Y22	Z22	X23	Y23	Z23	X24	Y24	Z24	X25	Y25	Z25	X26	Y26	Z26	X27	Y27	Z27	X28	Y28	Z28	X29	Y29	Z29	X30	Y30	Z30	X31	Y31	Z31	X32	Y32	Z32	X33	Y33	Z33	X34	Y34	Z34	X35	Y35	Z35	X36	Y36	Z36	X37	Y37	Z37	X38	Y38	Z38	X39	Y39	Z39	X40	Y40	Z40	X41	Y41	Z41	X42	Y42	Z42
																																																																																																																															
67	0.66	224.33635	1638.67468	1012.48663	281.30182	1646.13464	1110.5199	117.91869	1605.46277	1070.16858	176.25771	1612.61682	1174.14465	77.95567	1413.60242	1101.76599	35.12177	1118.25	1117.98889	222.61539	1342.77246	1099.16882	263.94315	1189.90417	1105.78149	18.23926	1224.87952	1188.09363	155.52946	1368.4408	939.65881	91.42272	1189.51404	862.74054	42.36431	1050.31763	872.30243	39.08142	936.86328	851.06323	67.88968	799.86108	870.25159	14.91921	816.49097	848.211	28.35006	733.78766	838.91321	158.97884	1388.84863	1247.38269	96.07233	1203.85291	1365.60889	113.54247	1078.28772	1392.52173	204.25107	989.59375	1410.2146	329.08289	939.46899	1368.15381	302.06793	915.49603	1412.32983	379.13043	881.35815	1406.34583	226.58803	916.92413	1028.16406	204.21133	912.18927	1242.08972	35.76037	923.72394	1056.21326	22.96199	930.12799	1200.41858	285.38321	600.88824	980.4939	311.79126	470.77026	1009.53949	283.91251	280.6026	1005.35291	270.38794	67.73251	1071.01624	227.33047	39.12608	1126.68909	415.47885	35.01833	1060.93542	102.97557	585.89844	1313.94141	81.68346	425.72269	1306.77844	-69.64197	334.58081	1309.35889	-226.24918	196.74063	1269.08228	-275.04391	220.46419	1217.88391	-208.17891	52.85287	1244.63647	265.08618	1679.83325	1091.78137	-1973.14087	1023.59216	3102.00171	-2012.45776	1021.99005	3140.69775
68	0.67	237.98224	1638.47937	1009.17297	295.27277	1646.46143	1107.05884	131.92728	1605.50305	1067.54541	190.38202	1613.08582	1170.99146	90.9377	1413.90125	1099.82178	48.78574	1118.7677	1116.73767	235.9821	1343.28198	1097.06848	277.50436	1190.46045	1104.2594	31.81256	1225.75549	1186.995	168.95241	1368.47791	937.50995	107.31934	1188.52112	861.0882	60.11646	1048.46704	870.54926	59.19253	934.80585	849.65601	90.37505	798.45911	869.63062	37.27997	813.93817	847.03497	52.56691	731.43262	838.21069	172.7968	1389.52588	1245.29883	108.78571	1204.62097	1363.30518	125.3213	1078.97363	1389.71301	213.65005	987.86163	1408.36011	337.42929	933.90765	1367.5824	309.15915	910.73602	1411.47131	385.06635	874.52252	1406.66284	239.89243	918.21771	1025.87805	218.65068	912.7179	1240.17358	49.19494	924.39539	1055.82617	37.06938	929.4281	1200.04382	297.76279	600.14685	979.81647	320.75296	468.29703	1008.17999	288.62244	279.47562	1005.31055	271.23981	67.7624	1071.30188	227.72554	39.52293	1126.82776	416.71219	34.00689	1061.0387	125.68378	584.10522	1313.07349	108.79651	423.43768	1306.37378	-44.26918	335.88391	1310.44592	-205.39461	204.91029	1269.48401	-253.31818	231.02087	1218.41028	-194.16336	60.12788	1247.71863	278.63034	1679.90259	1088.30237	-1973.18115	1023.51434	3102.07495	-2012.52356	1022.0589	3140.74048
69	0.68	251.65939	1638.4325	1005.90179	309.35306	1646.71826	1103.59717	145.66792	1605.64368	1064.5376	204.64616	1613.73401	1168.1228	103.99672	1414.6803	1098.35266	62.2754	1119.48792	1115.60486	249.12173	1343.79333	1095.11133	290.61374	1191.11572	1102.82349	45.13915	1226.86108	1186.18652	182.26476	1368.65613	935.46844	123.2365	1187.76538	859.70117	78.00047	1046.67102	868.80426	79.61323	932.95593	848.26501	113.56911	797.43457	868.90234	60.35241	811.59216	845.70093	77.71689	729.35712	837.57184	186.33173	1390.40125	1243.36609	121.73053	1205.57385	1361.4137	137.11349	1079.71875	1386.76221	222.91751	986.0849	1406.22852	345.30392	928.04395	1367.02271	315.72189	905.6037	1410.33826	390.32928	867.12952	1406.8634	252.81119	919.38037	1023.52002	232.86282	913.54114	1238.40076	62.79559	924.91486	1055.46375	51.20758	928.76105	1199.58435	307.39502	598.65259	978.55396	328.23001	466.0864	1006.42523	292.40842	279.02841	1005.28516	272.09821	68.02631	1071.59106	227.93327	39.81931	1126.81665	417.46094	33.5921	1061.26416	148.88742	582.5401	1311.89172	136.16362	421.81708	1305.57068	-18.77824	337.80966	1310.74121	-183.76299	212.66666	1269.08936	-229.71397	239.82471	1216.60059	-177.0853	66.86833	1252.6676	292.20099	1680.1073	1084.94971	-1973.2085	1023.5614	3101.9519	-2012.56616	1022.15259	3140.59253
70	0.69	265.56192	1638.29126	1002.79474	323.6767	1646.92395	1100.25903	159.65099	1606.13257	1062.00049	219.02032	1614.51721	1165.24036	117.35378	1415.66223	1096.03979	75.52341	1120.2627	1114.64111	262.12943	1344.43982	1093.32556	303.54041	1191.7948	1101.43567	58.27735	1228.1178	1185.41125	195.3783	1369.00964	933.63403	138.93982	1187.26917	858.46558	96.49499	1044.98181	867.19958	100.2518	931.37592	846.79572	137.26532	796.7876	868.11084	83.86986	809.52448	844.55145	103.4242	727.9248	836.76227	199.61177	1391.50757	1241.58215	134.89609	1206.69373	1359.85059	148.94586	1080.5741	1383.92383	231.71582	984.14325	1404.54688	352.70688	921.93958	1366.52954	321.83582	900.56976	1409.47778	394.88196	859.54736	1406.93518	265.72687	920.51917	1021.17749	247.06197	914.57025	1236.76648	75.62133	925.3924	1054.69006	65.08353	928.10077	1198.92358	315.00806	597.03693	976.90106	334.87878	464.5079	1004.86224	295.69241	278.87302	1005.22644	272.44586	68.45046	1071.703	228.0858	40.22285	1126.75342	418.18607	33.07188	1061.50916	172.50841	581.48468	1310.60266	163.43784	421.06598	1304.71265	7.04293	340.10236	1310.54919	-161.01004	219.80243	1267.94824	-206.09908	245.91768	1213.21558	-156.69815	73.8669	1257.49939	306.17892	1680.21472	1081.33923	-1973.0343	1023.91211	3102.01758	-2012.53394	1022.15796	3140.68408
71	0.7	279.4819	1638.25732	999.80792	338.13388	1647.08423	1097.02332	173.90346	1606.79504	1059.7699	233.50517	1615.42883	1162.46973	130.47147	1417.0863	1094.70874	88.53081	1121.15039	1113.66345	274.96576	1345.26563	1091.63818	316.33865	1192.58655	1100.13562	71.22869	1229.46814	1184.49561	208.22655	1369.53662	931.99475	154.4131	1187.02246	857.26141	113.91577	1043.85474	865.06097	121.07215	930.09595	845.5108	161.96899	796.86877	866.90601	107.82717	807.82178	843.52338	129.8904	726.82324	835.87634	212.66489	1392.71057	1240.00378	148.18137	1208.00977	1358.54395	160.87949	1081.35535	1381.05115	240.364	982.25873	1402.69592	359.70432	915.76538	1365.94824	327.58371	895.59259	1408.61719	398.896	851.68213	1406.86084	278.34329	921.61945	1019.1012	261.14514	915.91467	1235.01794	88.39754	925.90991	1053.94849	78.72346	928.08331	1198.46997	321.51804	595.56622	975.4491	341.09695	463.53897	1003.7077	298.69937	278.97333	1004.90033	273.07553	68.82401	1071.88	228.35387	40.71478	1126.86853	418.6853	32.72849	1061.54016	196.27008	581.30487	1309.51013	190.60284	421.35498	1303.67749	33.35995	342.43326	1309.86792	-136.63971	225.54924	1266.44177	-181.4668	250.3243	1210.49084	-133.05586	79.13232	1261.39282	320.59308	1680.55383	1077.75403	-1973.08862	1024.07227	3102.03589	-2012.46667	1022.04572	3140.63403
72	0.71	293.535	1638.41248	997.01031	352.54944	1647.27832	1093.77466	187.72295	1607.82104	1057.31543	248.1272	1616.48022	1159.89551	143.5881	1418.39905	1092.70471	101.40123	1122.13965	1112.68042	287.70316	1346.23059	1090.026	329.00946	1193.54419	1098.77332	84.08965	1230.80627	1183.33521	220.85205	1370.21545	930.4715	169.85835	1186.9884	856.32019	131.70966	1042.76892	864.02252	141.90924	929.11145	844.25989	186.35049	796.87408	866.36749	132.35323	806.49579	842.28833	156.97197	726.44812	834.84851	225.63536	1394.01331	1238.47424	161.48988	1209.35925	1357.32642	172.83958	1082.23853	1378.41968	248.81042	980.38715	1400.82629	366.32529	909.46277	1365.43359	332.95663	890.77423	1407.9231	402.33224	843.79376	1406.64783	290.85226	922.55249	1017.13525	275.17651	917.50781	1233.36682	101.09904	926.62646	1053.29443	92.35217	928.29376	1197.93616	328.12167	594.33838	973.79736	347.27478	463.01404	1002.75757	302.23602	278.87665	1004.40137	273.50543	69.0737	1071.84204	228.70151	41.18713	1126.92053	419.07947	32.6145	1061.68127	219.76302	582.15894	1308.26514	217.45787	422.60327	1302.36963	60.14637	344.42593	1308.50757	-110.85959	229.48743	1265.02283	-156.14839	253.39609	1208.53748	-106.86919	83.57282	1264.06689	335.35959	1680.84717	1074.3313	-1973.16479	1023.47009	3102.0293	-2012.50916	1021.9563	3140.82788
73	0.72	307.48373	1638.56946	994.23346	367.01416	1647.44348	1090.63794	201.8912	1608.91125	1055.07678	262.83167	1617.64734	1157.39709	156.42732	1419.75244	1091.15723	114.064	1123.2821	1111.71899	300.31018	1347.31934	1088.63037	341.57788	1194.58557	1097.40918	97.46486	1232.05042	1181.99133	233.25133	1371.01477	929.08661	184.74469	1187.21643	855.17334	149.5647	1041.60999	862.58734	162.85518	928.39374	843.07159	211.22462	797.68341	865.46936	157.13205	805.52948	841.42694	184.33138	726.63544	833.62482	238.47864	1395.39954	1237.33813	174.77602	1210.71375	1356.15894	185.02121	1082.93347	1375.75391	256.95352	978.49023	1399.2196	372.41681	903.18451	1364.93274	337.95691	885.94647	1407.11475	405.20801	835.97656	1406.29443	303.26572	923.45233	1015.21252	289.06216	919.28809	1231.6908	113.76148	927.48413	1052.62073	105.91835	928.89709	1197.34082	334.80914	593.4278	972.53998	353.64594	462.6366	1001.89929	306.16495	278.37198	1003.56049	273.83585	69.22103	1071.77991	228.60861	41.60286	1126.54639	419.12183	32.35238	1061.61243	242.81277	583.73138	1306.90979	244.04028	424.46872	1300.91284	87.10126	345.89023	1306.89258	-84.42522	231.97105	1263.74011	-130.95264	254.67657	1207.07813	-77.95163	86.81676	1265.60156	350.46515	1681.18408	1071.20972	-1973.02368	1023.37231	3101.99292	-2012.60767	1022.16852	3140.69995
